<?xml version="1.0" encoding="UTF-8" standalone="no"?>
<!DOCTYPE svg PUBLIC "-//W3C//DTD SVG 1.1//EN" "http://www.w3.org/Graphics/SVG/1.1/DTD/svg11.dtd">
<svg width="100%" height="100%" viewBox="0 0 512 512" version="1.1" xmlns="http://www.w3.org/2000/svg" xmlns:xlink="http://www.w3.org/1999/xlink" xml:space="preserve" xmlns:serif="http://www.serif.com/" style="fill-rule:evenodd;clip-rule:evenodd;stroke-linejoin:round;stroke-miterlimit:1.41421;">
    <g transform="matrix(1,0,0,1.16364,-0.5,-3.49091)">
        <path d="M512,58C512,27.645 483.323,3 448,3L65,3C29.677,3 1,27.645 1,58C1,88.355 29.677,113 65,113L448,113C483.323,113 512,88.355 512,58Z" style="fill:url(#_Linear1);"/>
    </g>
    <g transform="matrix(1,0,0,0.896359,-1,57.5462)">
        <path d="M148,231.998C148,186.742 115.066,150 74.5,150C33.934,150 1,186.742 1,231.998L1,425.002C1,470.258 33.934,507 74.5,507C115.066,507 148,470.258 148,425.002L148,231.998Z" style="fill:url(#_Linear2);"/>
    </g>
    <g transform="matrix(1,0,0,1.20755,1,7.24528)">
        <path d="M511,206C511,176.749 482.323,153 447,153L319,153C283.677,153 255,176.749 255,206C255,235.251 283.677,259 319,259L447,259C482.323,259 511,235.251 511,206Z" style="fill:url(#_Linear3);"/>
    </g>
    <g transform="matrix(0.934307,0,0,0.901408,36.438,53.1831)">
        <path d="M509,438C509,398.814 478.306,367 440.5,367C402.694,367 372,398.814 372,438C372,477.186 402.694,509 440.5,509C478.306,509 509,477.186 509,438Z" style="fill:url(#_Linear4);"/>
    </g>
    <defs>
        <linearGradient id="_Linear1" x1="0" y1="0" x2="1" y2="0" gradientUnits="userSpaceOnUse" gradientTransform="matrix(157,195.078,-227,134.922,380.5,1.28125)"><stop offset="0" style="stop-color:rgb(84,216,235);stop-opacity:1"/><stop offset="1" style="stop-color:rgb(234,141,254);stop-opacity:1"/></linearGradient>
        <linearGradient id="_Linear2" x1="0" y1="0" x2="1" y2="0" gradientUnits="userSpaceOnUse" gradientTransform="matrix(-219,219.778,-197,-244.322,216,283.875)"><stop offset="0" style="stop-color:rgb(84,216,235);stop-opacity:1"/><stop offset="0.5" style="stop-color:rgb(65,194,213);stop-opacity:1"/><stop offset="1" style="stop-color:rgb(8,129,145);stop-opacity:1"/></linearGradient>
        <linearGradient id="_Linear3" x1="0" y1="0" x2="1" y2="0" gradientUnits="userSpaceOnUse" gradientTransform="matrix(96,125.875,-152,79.5,381,141.406)"><stop offset="0" style="stop-color:rgb(84,216,235);stop-opacity:1"/><stop offset="1" style="stop-color:rgb(234,141,254);stop-opacity:1"/></linearGradient>
        <linearGradient id="_Linear4" x1="0" y1="0" x2="1" y2="0" gradientUnits="userSpaceOnUse" gradientTransform="matrix(101.68,108.719,-104.891,105.391,388.055,382.531)"><stop offset="0" style="stop-color:rgb(234,141,254);stop-opacity:1"/><stop offset="1" style="stop-color:rgb(161,8,199);stop-opacity:1"/></linearGradient>
    </defs>
</svg>
